<?xml version="1.0" encoding="UTF-8" standalone="no"?>
<!DOCTYPE svg PUBLIC "-//W3C//DTD SVG 1.1//EN" "http://www.w3.org/Graphics/SVG/1.1/DTD/svg11.dtd">
<svg version="1.1" xmlns="http://www.w3.org/2000/svg" xmlns:xlink="http://www.w3.org/1999/xlink" preserveAspectRatio="xMidYMid meet" viewBox="0 0 30 30" width="30" height="30"><defs><path d="M7.3 11.18C7.33 11.35 7.28 10.98 7.3 11.18C7.38 11.68 7.76 12.09 8.27 12.19C8.37 12.21 8.64 12.26 9.08 12.35C8.13 13.16 7.33 13.99 6.68 14.86C4.76 17.46 3.88 19.7 3.7 20.51C6.75 24.28 10.6 26.8 15.28 28.07C15.32 28.08 15.33 28.13 15.3 28.15C15.19 28.23 15.13 28.27 15.07 28.31C14.86 28.45 14.62 28.52 14.37 28.51C8.76 28.39 4.89 26.18 2.76 21.88C3.98 14.64 3.88 14.43 4.14 12.03C4.29 10.64 4.35 9.79 4.96 8.65C6.04 6.68 8.29 4.82 11.72 3.09C11.8 3.05 11.88 3.15 11.82 3.21C11.17 4 10.44 4.9 10.03 5.39C9.06 6.57 8.25 7.87 7.6 9.25C7.51 9.44 7.79 8.84 7.6 9.25C7.31 9.85 7.21 10.52 7.3 11.18Z" id="bBdZ4z9Dr"></path><path d="M7.3 11.18C7.33 11.35 7.28 10.98 7.3 11.18C7.38 11.68 7.76 12.09 8.27 12.19C8.37 12.21 8.64 12.26 9.08 12.35C8.13 13.16 7.33 13.99 6.68 14.86C4.76 17.46 3.88 19.7 3.7 20.51C6.75 24.28 10.6 26.8 15.28 28.07C15.32 28.08 15.33 28.13 15.3 28.15C15.19 28.23 15.13 28.27 15.07 28.31C14.86 28.45 14.62 28.52 14.37 28.51C8.76 28.39 4.89 26.18 2.76 21.88C3.98 14.64 3.88 14.43 4.14 12.03C4.29 10.64 4.35 9.79 4.96 8.65C6.04 6.68 8.29 4.82 11.72 3.09C11.8 3.05 11.88 3.15 11.82 3.21C11.17 4 10.44 4.9 10.03 5.39C9.06 6.57 8.25 7.87 7.6 9.25C7.51 9.44 7.79 8.84 7.6 9.25C7.31 9.85 7.21 10.52 7.3 11.18Z" id="cwl2Vd9c2"></path><path d="M11.4 7.98C11.18 8.48 10.99 9 10.84 9.52C10.81 9.6 10.8 9.68 10.8 9.76C10.8 9.92 10.54 10.25 10.03 10.76C9.47 10.88 8.97 10.85 8.55 10.66C8.78 9.41 9.14 8.45 9.6 7.77C10.07 7.09 10.89 6.19 12.06 5.06C12.24 5.53 12.27 5.98 12.16 6.41C12.12 6.55 11.75 7.17 11.4 7.98Z" id="a3c6FB4AGA"></path><path d="M11.4 7.98C11.18 8.48 10.99 9 10.84 9.52C10.81 9.6 10.8 9.68 10.8 9.76C10.8 9.92 10.54 10.25 10.03 10.76C9.47 10.88 8.97 10.85 8.55 10.66C8.78 9.41 9.14 8.45 9.6 7.77C10.07 7.09 10.89 6.19 12.06 5.06C12.24 5.53 12.27 5.98 12.16 6.41C12.12 6.55 11.75 7.17 11.4 7.98Z" id="dMnc65wwf"></path><path d="M25.57 1.5C24.51 1.29 21.98 3.37 21.73 3.55C21.49 3.72 20.89 4.04 20.15 4.25C19.41 4.46 18.82 4.71 18.47 5.31C19.01 5.42 19.72 6.06 20.61 7.2C20.64 6.29 20.98 5.46 21.63 4.7C23.05 3.06 25.21 1.87 25.57 1.5Z" id="enYdiUw"></path><path d="M25.57 1.5C24.51 1.29 21.98 3.37 21.73 3.55C21.49 3.72 20.89 4.04 20.15 4.25C19.41 4.46 18.82 4.71 18.47 5.31C19.01 5.42 19.72 6.06 20.61 7.2C20.64 6.29 20.98 5.46 21.63 4.7C23.05 3.06 25.21 1.87 25.57 1.5Z" id="aM8quVNoM"></path><path d="M22.93 10.09C21.56 7.77 21.14 7.31 21.46 6.04C21.78 5.36 22.76 4.48 24.37 3.4C24.69 4.58 24.69 5.67 24.37 6.69C23.97 7.98 23.46 8.26 22.93 10.09Z" id="bctTcAakG"></path><path d="M22.93 10.09C21.56 7.77 21.14 7.31 21.46 6.04C21.78 5.36 22.76 4.48 24.37 3.4C24.69 4.58 24.69 5.67 24.37 6.69C23.97 7.98 23.46 8.26 22.93 10.09Z" id="b7HzRmXr7"></path><path d="M18.14 16.74C17.46 16.99 16.7 16.87 16.13 16.42C16.02 16.34 15.75 16.13 15.31 15.8C16.18 15.19 16.79 15.07 17.14 15.42C17.32 15.6 17.46 15.59 17.58 15.38C17.67 15.23 17.88 15.19 18.02 15.3C18.13 15.39 18.03 15.31 18.11 15.37C18.41 15.62 18.68 15.89 18.93 16.18C18.96 16.21 19.01 16.28 19.1 16.38C18.59 16.57 18.27 16.69 18.14 16.74Z" id="adsm8mIhd"></path><path d="M18.14 16.74C17.46 16.99 16.7 16.87 16.13 16.42C16.02 16.34 15.75 16.13 15.31 15.8C16.18 15.19 16.79 15.07 17.14 15.42C17.32 15.6 17.46 15.59 17.58 15.38C17.67 15.23 17.88 15.19 18.02 15.3C18.13 15.39 18.03 15.31 18.11 15.37C18.41 15.62 18.68 15.89 18.93 16.18C18.96 16.21 19.01 16.28 19.1 16.38C18.59 16.57 18.27 16.69 18.14 16.74Z" id="eyR4MytPu"></path><path d="M23.73 15.1L23.23 14.75L22.85 15.1L23.16 15.94L23.73 15.1Z" id="cU4B40VWX"></path><path d="M23.73 15.1L23.23 14.75L22.85 15.1L23.16 15.94L23.73 15.1Z" id="c1OSDGrspC"></path><path d="M26.26 21.74C25.98 21.36 25.76 21.48 25.69 21.61C25.62 21.74 25.88 21.79 25.85 22.27C24.84 22.54 24.57 22.47 24.12 21.53C23.93 20.6 24.6 20.2 26.12 20.34C27.05 20.39 27.41 21.04 27.18 22.27C26.1 24.93 24.06 25.83 23.63 26.03C23.2 26.24 21.31 26.7 19.41 26.04C18.24 25.52 17.17 24.76 16.21 23.75C19.36 25.7 21.95 26.16 23.98 25.12C26.21 23.49 26.54 22.13 26.26 21.74Z" id="iBEkn3ndW"></path><path d="M26.26 21.74C25.98 21.36 25.76 21.48 25.69 21.61C25.62 21.74 25.88 21.79 25.85 22.27C24.84 22.54 24.57 22.47 24.12 21.53C23.93 20.6 24.6 20.2 26.12 20.34C27.05 20.39 27.41 21.04 27.18 22.27C26.1 24.93 24.06 25.83 23.63 26.03C23.2 26.24 21.31 26.7 19.41 26.04C18.24 25.52 17.17 24.76 16.21 23.75C19.36 25.7 21.95 26.16 23.98 25.12C26.21 23.49 26.54 22.13 26.26 21.74Z" id="aHOl9BWw"></path></defs><g><g><g><use xlink:href="#bBdZ4z9Dr" opacity="1" fill="#ffffff" fill-opacity="1"></use><g><use xlink:href="#bBdZ4z9Dr" opacity="1" fill-opacity="0" stroke="#000000" stroke-width="1" stroke-opacity="0"></use></g></g><g><use xlink:href="#cwl2Vd9c2" opacity="1" fill="#ffffff" fill-opacity="1"></use><g><use xlink:href="#cwl2Vd9c2" opacity="1" fill-opacity="0" stroke="#000000" stroke-width="1" stroke-opacity="0"></use></g></g><g><use xlink:href="#a3c6FB4AGA" opacity="1" fill="#ffffff" fill-opacity="1"></use><g><use xlink:href="#a3c6FB4AGA" opacity="1" fill-opacity="0" stroke="#000000" stroke-width="1" stroke-opacity="0"></use></g></g><g><use xlink:href="#dMnc65wwf" opacity="1" fill="#ffffff" fill-opacity="1"></use><g><use xlink:href="#dMnc65wwf" opacity="1" fill-opacity="0" stroke="#000000" stroke-width="1" stroke-opacity="0"></use></g></g><g><use xlink:href="#enYdiUw" opacity="1" fill="#ffffff" fill-opacity="1"></use><g><use xlink:href="#enYdiUw" opacity="1" fill-opacity="0" stroke="#000000" stroke-width="1" stroke-opacity="0"></use></g></g><g><use xlink:href="#aM8quVNoM" opacity="1" fill="#ffffff" fill-opacity="1"></use><g><use xlink:href="#aM8quVNoM" opacity="1" fill-opacity="0" stroke="#000000" stroke-width="1" stroke-opacity="0"></use></g></g><g><use xlink:href="#bctTcAakG" opacity="1" fill="#ffffff" fill-opacity="1"></use><g><use xlink:href="#bctTcAakG" opacity="1" fill-opacity="0" stroke="#000000" stroke-width="1" stroke-opacity="0"></use></g></g><g><use xlink:href="#b7HzRmXr7" opacity="1" fill="#ffffff" fill-opacity="1"></use><g><use xlink:href="#b7HzRmXr7" opacity="1" fill-opacity="0" stroke="#000000" stroke-width="1" stroke-opacity="0"></use></g></g><g><use xlink:href="#adsm8mIhd" opacity="1" fill="#ffffff" fill-opacity="1"></use><g><use xlink:href="#adsm8mIhd" opacity="1" fill-opacity="0" stroke="#000000" stroke-width="1" stroke-opacity="0"></use></g></g><g><use xlink:href="#eyR4MytPu" opacity="1" fill="#ffffff" fill-opacity="1"></use><g><use xlink:href="#eyR4MytPu" opacity="1" fill-opacity="0" stroke="#000000" stroke-width="1" stroke-opacity="0"></use></g></g><g><use xlink:href="#cU4B40VWX" opacity="1" fill="#ffffff" fill-opacity="1"></use><g><use xlink:href="#cU4B40VWX" opacity="1" fill-opacity="0" stroke="#000000" stroke-width="1" stroke-opacity="0"></use></g></g><g><use xlink:href="#c1OSDGrspC" opacity="1" fill="#ffffff" fill-opacity="1"></use><g><use xlink:href="#c1OSDGrspC" opacity="1" fill-opacity="0" stroke="#000000" stroke-width="1" stroke-opacity="0"></use></g></g><g><use xlink:href="#iBEkn3ndW" opacity="1" fill="#ffffff" fill-opacity="1"></use><g><use xlink:href="#iBEkn3ndW" opacity="1" fill-opacity="0" stroke="#000000" stroke-width="1" stroke-opacity="0"></use></g></g><g><use xlink:href="#aHOl9BWw" opacity="1" fill="#ffffff" fill-opacity="1"></use><g><use xlink:href="#aHOl9BWw" opacity="1" fill-opacity="0" stroke="#000000" stroke-width="1" stroke-opacity="0"></use></g></g></g></g></svg>